<svg width="81" height="101" viewBox="0 0 81 101" fill="none" xmlns="http://www.w3.org/2000/svg">
<path d="M59.357 53.9218C58.5279 53.9218 57.7158 53.6374 57.0625 53.1035C56.2197 52.4149 55.7307 51.384 55.7307 50.2957V12.3579C55.7307 10.3553 57.3542 8.7318 59.3569 8.7318H94.8836C96.7896 8.7318 98.5518 9.59622 99.718 11.1037C100.885 12.611 101.279 14.5338 100.801 16.3788L96.6115 32.5428C94.3873 41.1224 87.6688 47.8052 79.0775 49.983C79.0215 49.9972 78.9653 50.01 78.9086 50.0215L60.0792 53.8492C59.8398 53.8979 59.5977 53.9218 59.357 53.9218ZM62.9834 15.9841V45.8582L77.3753 42.9325C83.3621 41.3844 88.0387 36.7129 89.5914 30.723L93.4118 15.9843H62.9834V15.9841Z" fill="#FFC250"/>
<path d="M41.6427 53.9218C41.4021 53.9218 41.1604 53.8979 40.9204 53.8492L22.091 50.0215C22.0345 50.01 21.9783 49.997 21.9225 49.983C13.331 47.805 6.61232 41.1224 4.38854 32.5426L0.19862 16.3788C-0.279749 14.534 0.114783 12.6112 1.28141 11.1039C2.44784 9.59642 4.21002 8.7318 6.116 8.7318H41.6427C43.6454 8.7318 45.2689 10.3553 45.2689 12.3579V50.2957C45.2689 51.384 44.7801 52.4149 43.9371 53.1035C43.2842 53.6373 42.4719 53.9218 41.6427 53.9218ZM23.6247 42.9325L38.0168 45.8582V15.9841H7.58839L11.4088 30.7228C12.9613 36.7129 17.6379 41.3842 23.6247 42.9325Z" fill="#FFC250"/>
<path d="M62.9162 81.5791C53.5051 78.4726 46.9456 68.7963 46.5976 57.6621C46.9769 55.9027 47.1754 54.0835 47.1754 52.2284V39.9214H44.5305V52.2284C44.5305 63.7033 36.9385 73.794 25.9127 76.9736V84.4302H65.2005V82.3333L62.9162 81.5791Z" fill="#FFD064"/>
<path d="M72.8024 76.3149C63.1297 73.5256 56.4692 64.6731 56.4692 54.606V39.9214H44.5303V52.2284C44.5303 54.0837 44.3319 55.9027 43.9525 57.6621C44.3005 68.7963 50.86 78.4726 60.2711 81.5791L62.5556 82.3333V84.4302H75.0869V76.9736L72.8024 76.3149Z" fill="#FFC250"/>
<path d="M67.973 76.8925H21.6327C19.8256 76.8925 18.3605 78.3574 18.3605 80.1647V96.5948H71.245V80.1647C71.2452 78.3574 69.7801 76.8925 67.973 76.8925Z" fill="#FFE07D"/>
<path d="M79.3673 76.8925H66.2748C68.0819 76.8925 69.547 78.3576 69.547 80.1647V96.5948H82.6396V80.1647C82.6394 78.3576 81.1745 76.8925 79.3673 76.8925Z" fill="#FFD064"/>
<path d="M66.9517 22.9217V4.55905H23.2678V22.2863C23.2678 36.8297 31.1411 50.2335 43.8436 57.3154C44.7885 57.8423 45.7806 58.2486 46.7979 58.5349C59.2737 51.0441 66.9517 37.5385 66.9517 22.9217Z" fill="#FFE07D"/>
<path d="M64.61 4.55905V22.2863C64.61 36.8297 56.7368 50.2335 44.034 57.3154C44.0023 57.3329 43.9707 57.3505 43.939 57.3679C48.0585 59.622 53.0501 59.6045 57.1562 57.3154C69.8587 50.2333 77.7321 36.8297 77.7321 22.2863V4.55905H64.61Z" fill="#FFD064"/>
<path d="M77.7767 99.3072V97.2584C77.7767 95.2552 76.1534 93.6311 74.1504 93.6301H15.4216C13.4178 93.6301 11.7933 95.2546 11.7933 97.2584C11.7933 99.2622 13.4178 100.887 15.4216 100.887H76.0783L77.7767 99.3072Z" fill="#FFD064"/>
<path d="M85.5784 93.6321H72.45C74.4538 93.6321 76.0783 95.2566 76.0783 97.2604V100.889H85.5784C87.5822 100.889 89.2067 99.2642 89.2067 97.2604C89.2067 95.2566 87.5822 93.6321 85.5784 93.6321Z" fill="#FFC250"/>
<path d="M74.1172 4.42231V1.52862L71.3052 0.112061H20.8829C18.5025 0.112061 16.5729 2.04171 16.5729 4.42212C16.5729 6.80252 18.5025 8.73217 20.8829 8.73217H69.8072C72.1874 8.73257 74.1172 6.80272 74.1172 4.42231Z" fill="#FFD064"/>
<path d="M80.117 0.112442H71.3052V4.4225C71.3052 6.8029 69.3753 8.73255 66.9951 8.73255H80.1172C82.4976 8.73255 84.4273 6.8029 84.4273 4.4225C84.4273 2.04209 82.4974 0.112442 80.117 0.112442Z" fill="#FFC250"/>
</svg>
